mastitorrents.com
  
http://mastitorrents.com/forums/index.php
  
http://thepiratebay.se/user/HDvideos/0/7

Zila Ghaziabad (2013) Hindi DVDScr 480p XviD AC3

Format : AVI
Format/Info : Audio Video Interleave
File size : 1.00 GiB
Duration : 2h 25mn
Overall bit rate : 988 Kbps

Video
ID : 0
Format : MPEG-4 Visual
Format profile : Advanced Simple@L5
Format settings, BVOP : 2
Format settings, QPel : No
Format settings, GMC : No warppoints
Format settings, Matrix : Default (H.263)
Codec ID : XVID
Codec ID/Hint : XviD
Duration : 2h 25mn
Bit rate : 853 Kbps
Width : 720 pixels
Height : 296 pixels
Display aspect ratio : 2.40:1
Frame rate : 23.976 fps
Color space : YUV
Chroma subsampling : 4:2:0
Bit depth : 8 bits
Scan type : Progressive
Compression mode : Lossy
Bits/(Pixel*Frame) : 0.167
Stream size : 886 MiB (86%)
Writing library : XviD 1.2.1 (UTC 2008-12-04)

Audio
ID : 1
Format : AC-3
Format/Info : Audio Coding 3
Mode extension : CM (complete main)
Format settings, Endianness : Big
Codec ID : 2000
Duration : 2h 25mn
Bit rate mode : Constant
Bit rate : 128 Kbps
Channel(s) : 2 channels
Channel positions : Front: L R
Sampling rate : 48.0 KHz
Bit depth : 16 bits
Compression mode : Lossy
Stream size : 133 MiB (13%)
Alignment : Aligned on interleaves
Interleave, duration : 64 ms (1.53 video frames)
Interleave, preload duration : 192 ms
Title : rip T80 2_0ch 192Kbps DELAY 0ms_new

Screens: 
http://i.cubeupload.com/xB2dgq.png 
http://i.cubeupload.com/uBwXMj.png 
http://i.cubeupload.com/QEd0X4.png 
http://i.cubeupload.com/a15XDl.png 
http://i.cubeupload.com/DKkrPj.png 
http://i.cubeupload.com/r9lGBg.png 
http://i.cubeupload.com/Jr4IMZ.png 
http://i.cubeupload.com/vE4veI.png 
http://i.cubeupload.com/1bI4LE.png 
http://i.cubeupload.com/QXsF3Y.png